<?xml version="1.0" standalone="no"?>
<!DOCTYPE svg PUBLIC "-//W3C//DTD SVG 20010904//EN"
 "http://www.w3.org/TR/2001/REC-SVG-20010904/DTD/svg10.dtd">
<svg version="1.0" xmlns="http://www.w3.org/2000/svg"
 width="700.000000pt" height="700.000000pt" viewBox="0 0 700.000000 700.000000"
 preserveAspectRatio="xMidYMid meet">
<metadata>
Created by potrace 1.14, written by Peter Selinger 2001-2017
</metadata>
<g transform="translate(0.000000,700.000000) scale(0.100000,-0.100000)"
fill="#000000" stroke="none">
<path d="M2624 6436 c-3 -12 -14 -39 -24 -61 -26 -57 -121 -282 -125 -295 -1
-3 -6 -16 -12 -30 -6 -14 -68 -160 -138 -325 -69 -165 -132 -313 -140 -330 -7
-16 -32 -75 -55 -130 -23 -55 -48 -113 -55 -130 -27 -63 -102 -241 -365 -865
-150 -355 -280 -663 -290 -685 -10 -22 -41 -96 -70 -165 -69 -166 -238 -567
-255 -605 -7 -16 -68 -160 -135 -320 -67 -159 -128 -303 -135 -320 -14 -31
-331 -782 -550 -1302 -68 -161 -126 -301 -129 -311 -6 -18 44 -19 2003 -19
l2010 0 -15 35 c-8 19 -16 44 -19 56 -4 20 -88 260 -105 301 -5 11 -22 58 -39
105 -77 220 -155 443 -182 518 -16 45 -43 121 -60 170 -16 48 -34 96 -38 107
-8 20 -18 20 -664 21 -361 0 -659 3 -662 6 -5 4 11 50 35 103 5 11 84 205 175
430 91 226 170 419 175 430 5 11 35 83 66 160 31 77 85 212 121 300 36 88 99
243 139 345 41 102 79 194 84 205 5 11 46 110 90 220 44 110 85 209 90 220 5
11 32 79 61 150 52 131 65 156 67 133 0 -11 291 -736 321 -803 5 -11 32 -76
59 -145 27 -69 112 -278 187 -465 75 -187 193 -479 262 -650 68 -170 130 -323
137 -340 7 -16 26 -61 41 -100 15 -38 33 -83 40 -100 7 -16 67 -165 133 -330
259 -645 421 -1045 431 -1063 10 -18 39 -19 886 -19 482 0 878 3 880 7 3 5
-168 424 -240 585 -7 17 -108 257 -225 535 -117 278 -218 519 -225 535 -7 17
-43 102 -80 190 -37 88 -73 174 -80 190 -7 17 -50 118 -95 225 -45 107 -136
323 -202 480 -176 417 -198 469 -222 530 -13 30 -30 71 -39 90 -8 19 -40 94
-70 165 -30 72 -91 216 -135 320 -44 105 -92 219 -107 255 -14 36 -34 83 -44
105 -10 22 -57 135 -105 250 -48 116 -94 226 -103 245 -8 19 -118 278 -243
575 -125 297 -237 561 -248 586 l-20 46 -871 0 -871 0 -6 -21z"/>
</g>
</svg>
